{
  "asset": {
    "version": "2.0",
    "generator": "THREE.GLTFExporter"
  },
  "scenes": [
    {
      "name": "Scene",
      "nodes": [
        1
      ]
    }
  ],
  "scene": 0,
  "nodes": [
    {
      "name": "Asset3DLoadersceneRoot",
      "extras": {
        "name": "Asset3DLoader.sceneRoot"
      },
      "mesh": 0
    },
    {
      "name": "卡丁车.glb",
      "children": [
        0
      ]
    }
  ],
  "bufferViews": [
    {
      "buffer": 0,
      "byteOffset": 0,
      "byteLength": 6624,
      "target": 34962,
      "byteStride": 12
    },
    {
      "buffer": 0,
      "byteOffset": 6624,
      "byteLength": 4416,
      "target": 34962,
      "byteStride": 8
    }
  ],
  "buffers": [
    {
      "byteLength": 11040,
      "uri": "data:application/octet-stream;base64,"
    }
  ],
  "accessors": [
    {
      "bufferView": 0,
      "componentType": 5126,
      "count": 552,
      "max": [
        0.7610980272293091,
        0.6985120177268982,
        1.25
      ],
      "min": [
        -0.7610980272293091,
        -0.6985120177268982,
        -1.25
      ],
      "type": "VEC3"
    },
    {
      "bufferView": 1,
      "componentType": 5126,
      "count": 552,
      "max": [
        1,
        1
      ],
      "min": [
        0,
        0.015625
      ],
      "type": "VEC2"
    }
  ],
  "materials": [
    {
      "pbrMetallicRoughness": {
        "baseColorTexture": {
          "index": 0
        }
      },
      "doubleSided": true,
      "extensions": {
        "KHR_materials_pbrSpecularGlossiness": {
          "specularFactor": [
            0,
            0,
            0
          ],
          "glossinessFactor": 0.08235294371843338,
          "diffuseTexture": {
            "index": 0
          }
        }
      }
    }
  ],
  "textures": [
    {
      "sampler": 0,
      "source": 0
    }
  ],
  "samplers": [
    {
      "magFilter": 9729,
      "minFilter": 9985,
      "wrapS": 10497,
      "wrapT": 10497
    }
  ],
  "images": [
    {
      "mimeType": "image/png",
      "uri": "data:image/png;base64,"
    }
  ],
  "meshes": [
    {
      "primitives": [
        {
          "mode": 4,
          "attributes": {
            "POSITION": 0,
            "TEXCOORD_0": 1
          },
          "material": 0
        }
      ]
    }
  ],
  "extensionsUsed": [
    "KHR_materials_pbrSpecularGlossiness"
  ]
}